<svg width="44" height="43" viewBox="0 0 44 43" fill="none" xmlns="http://www.w3.org/2000/svg">
<circle cx="21.8984" cy="21.5" r="21.5" fill="#111827"/>
<path d="M31.5251 13.8696C30.5854 14.33 29.6645 14.517 28.706 14.7998C27.6527 13.6111 26.0909 13.5454 24.5902 14.1073C23.0896 14.6692 22.1067 16.043 22.1283 17.6189V18.5586C19.079 18.6366 16.3633 17.2477 14.6108 14.7998C14.6108 14.7998 10.6811 21.7845 18.3695 25.1363C16.6105 26.3081 14.8561 27.0984 12.7314 27.0157C15.8399 28.71 19.2275 29.2926 22.1602 28.4412C25.5243 27.4639 28.2888 24.9428 29.3497 21.1662C29.6662 20.0176 29.8233 18.8309 29.8168 17.6396C29.8149 17.4056 31.2357 15.0357 31.5251 13.8696Z" stroke="white" stroke-width="2.34921" stroke-linecap="round" stroke-linejoin="round"/>
</svg>
