<svg width="44" height="43" viewBox="0 0 44 43" fill="none" xmlns="http://www.w3.org/2000/svg">
<circle cx="21.8984" cy="21.5" r="21.5" fill="#111827"/>
<path d="M31.5261 13.87C30.5864 14.3305 29.6655 14.5175 28.707 14.8003C27.6536 13.6116 26.0919 13.5459 24.5912 14.1078C23.0905 14.6697 22.1076 16.0435 22.1292 17.6194V18.5591C19.08 18.6371 16.3643 17.2482 14.6118 14.8003C14.6118 14.8003 10.682 21.785 18.3705 25.1368C16.6114 26.3086 14.857 27.0989 12.7324 27.0162C15.8409 28.7104 19.2284 29.2931 22.1612 28.4417C25.5253 27.4644 28.2898 24.9433 29.3507 21.1667C29.6672 20.0181 29.8243 18.8314 29.8177 17.64C29.8158 17.4061 31.2366 15.0362 31.5261 13.87Z" stroke="white" stroke-width="2.34921" stroke-linecap="round" stroke-linejoin="round"/>
</svg>
