<svg width="44" height="43" viewBox="0 0 44 43" fill="none" xmlns="http://www.w3.org/2000/svg">
<circle cx="22.1846" cy="21.5" r="21.5" fill="#111827"/>
<path fill-rule="evenodd" clip-rule="evenodd" d="M22.1927 12.5918C17.0051 12.5918 12.7959 16.801 12.7959 21.9886C12.7959 27.1763 17.0051 31.3854 22.1927 31.3854C27.3701 31.3854 31.5895 27.1763 31.5895 21.9886C31.5895 16.801 27.3701 12.5918 22.1927 12.5918ZM28.3995 16.9233C29.5206 18.289 30.1933 20.0318 30.2137 21.9173C29.9487 21.8663 27.2988 21.3261 24.6286 21.6625C24.5674 21.53 24.5164 21.3873 24.4553 21.2446C24.2922 20.8574 24.1088 20.4599 23.9253 20.0828C26.8809 18.8802 28.2262 17.1475 28.3995 16.9233ZM22.1927 13.9779C24.2311 13.9779 26.0962 14.7423 27.5129 15.9959C27.3701 16.1997 26.1573 17.8202 23.3036 18.8903C21.9889 16.4749 20.5315 14.4977 20.3073 14.1919C20.9085 14.0492 21.5405 13.9779 22.1927 13.9779ZM18.7785 14.7321C18.9925 15.0174 20.4194 17.0048 21.7545 19.3693C18.0039 20.3681 14.6916 20.3478 14.3349 20.3478C14.8546 17.8609 16.5363 15.792 18.7785 14.7321ZM14.1616 21.9988C14.1616 21.9173 14.1616 21.8357 14.1616 21.7542C14.5081 21.7644 18.4014 21.8154 22.4067 20.6128C22.6412 21.0612 22.8552 21.5198 23.0591 21.9784C22.9571 22.009 22.845 22.0396 22.7431 22.0701C18.6052 23.4053 16.4038 27.0539 16.2203 27.3597C14.9464 25.943 14.1616 24.0576 14.1616 21.9988ZM22.1927 30.0197C20.3378 30.0197 18.6256 29.3879 17.2701 28.3279C17.4128 28.0324 19.0434 24.8933 23.5686 23.3136C23.589 23.3034 23.5992 23.3034 23.6196 23.2932C24.7508 26.2182 25.2095 28.6744 25.3318 29.3776C24.3636 29.7955 23.3036 30.0197 22.1927 30.0197ZM26.6669 28.6439C26.5854 28.1546 26.1573 25.8105 25.1076 22.9262C27.625 22.5288 29.8264 23.1811 30.1016 23.2728C29.7551 25.5048 28.4709 27.431 26.6669 28.6439Z" fill="white"/>
</svg>
