<svg width="44" height="43" viewBox="0 0 44 43" fill="none" xmlns="http://www.w3.org/2000/svg">
<circle cx="22.1836" cy="21.5" r="21.5" fill="#111827"/>
<path fill-rule="evenodd" clip-rule="evenodd" d="M22.1917 12.5913C17.0041 12.5913 12.7949 16.8005 12.7949 21.9881C12.7949 27.1758 17.0041 31.385 22.1917 31.385C27.3692 31.385 31.5886 27.1758 31.5886 21.9881C31.5886 16.8005 27.3692 12.5913 22.1917 12.5913ZM28.3985 16.9228C29.5196 18.2885 30.1923 20.0313 30.2127 21.9168C29.9477 21.8659 27.2978 21.3257 24.6276 21.662C24.5664 21.5295 24.5155 21.3868 24.4543 21.2441C24.2912 20.8569 24.1078 20.4594 23.9243 20.0823C26.8799 18.8797 28.2253 17.147 28.3985 16.9228ZM22.1917 13.9774C24.2301 13.9774 26.0952 14.7418 27.5119 15.9954C27.3692 16.1992 26.1563 17.8197 23.3026 18.8898C21.9879 16.4744 20.5305 14.4972 20.3063 14.1914C20.9076 14.0487 21.5395 13.9774 22.1917 13.9774ZM18.7775 14.7316C18.9915 15.017 20.4184 17.0044 21.7535 19.3688C18.0029 20.3677 14.6906 20.3473 14.3339 20.3473C14.8537 17.8605 16.5353 15.7915 18.7775 14.7316ZM14.1606 21.9984C14.1606 21.9168 14.1606 21.8353 14.1606 21.7537C14.5071 21.7639 18.4004 21.8149 22.4058 20.6123C22.6402 21.0607 22.8542 21.5193 23.0581 21.9779C22.9561 22.0085 22.844 22.0391 22.7421 22.0697C18.6042 23.4048 16.4028 27.0534 16.2194 27.3592C14.9454 25.9426 14.1606 24.0571 14.1606 21.9984ZM22.1917 30.0192C20.3368 30.0192 18.6246 29.3874 17.2691 28.3274C17.4118 28.0319 19.0425 24.8928 23.5676 23.3131C23.588 23.3029 23.5982 23.3029 23.6186 23.2927C24.7499 26.2177 25.2085 28.6739 25.3308 29.3772C24.3626 29.795 23.3026 30.0192 22.1917 30.0192ZM26.6659 28.6434C26.5844 28.1542 26.1563 25.8101 25.1066 22.9258C27.624 22.5283 29.8254 23.1806 30.1006 23.2723C29.7541 25.5043 28.4699 27.4305 26.6659 28.6434Z" fill="white"/>
</svg>
