<svg width="44" height="43" viewBox="0 0 44 43" fill="none" xmlns="http://www.w3.org/2000/svg">
<circle cx="21.9941" cy="21.5" r="21.5" fill="#111827"/>
<path d="M16.4226 14.5648C16.4224 15.0879 16.2143 15.5894 15.8443 15.959C15.4743 16.3286 14.9726 16.5362 14.4496 16.5359C13.9266 16.5356 13.4251 16.3276 13.0554 15.9576C12.6858 15.5876 12.4783 15.0859 12.4785 14.5629C12.4788 14.0398 12.6868 13.5383 13.0568 13.1687C13.4268 12.7991 13.9285 12.5915 14.4516 12.5918C14.9746 12.5921 15.4761 12.8001 15.8457 13.1701C16.2154 13.5401 16.4229 14.0418 16.4226 14.5648ZM16.4818 17.9962H12.5377V30.3412H16.4818V17.9962ZM22.7135 17.9962H18.7891V30.3412H22.674V23.8631C22.674 20.2542 27.3774 19.919 27.3774 23.8631V30.3412H31.2722V22.5221C31.2722 16.4383 24.3108 16.6651 22.674 19.6527L22.7135 17.9962Z" fill="white"/>
</svg>
