<svg width="44" height="43" viewBox="0 0 44 43" fill="none" xmlns="http://www.w3.org/2000/svg">
<circle cx="21.9941" cy="21.5" r="21.5" fill="#111827"/>
<path d="M16.4226 14.5643C16.4224 15.0874 16.2143 15.5889 15.8443 15.9585C15.4743 16.3282 14.9726 16.5357 14.4496 16.5354C13.9266 16.5352 13.4251 16.3271 13.0554 15.9571C12.6858 15.5871 12.4783 15.0854 12.4785 14.5624C12.4788 14.0394 12.6868 13.5379 13.0568 13.1682C13.4268 12.7986 13.9285 12.591 14.4516 12.5913C14.9746 12.5916 15.4761 12.7996 15.8457 13.1696C16.2154 13.5396 16.4229 14.0413 16.4226 14.5643V14.5643ZM16.4818 17.9957H12.5377V30.3408H16.4818V17.9957ZM22.7135 17.9957H18.7891V30.3408H22.674V23.8626C22.674 20.2537 27.3774 19.9185 27.3774 23.8626V30.3408H31.2722V22.5216C31.2722 16.4378 24.3108 16.6646 22.674 19.6522L22.7135 17.9957V17.9957Z" fill="white"/>
</svg>
