<svg width="151" height="48" viewBox="0 0 151 48" fill="none" xmlns="http://www.w3.org/2000/svg">
<g clip-path="url(#clip0_1_7005)">
<path fill-rule="evenodd" clip-rule="evenodd" d="M144.594 48H5.70994C2.64691 48 0.152344 45.2948 0.152344 42V6C0.152344 2.69327 2.64691 0 5.70994 0H144.594C147.655 0 150.152 2.69327 150.152 6V42C150.152 45.2948 147.655 48 144.594 48Z" fill="black"/>
<path d="M144.594 47.5H5.70994C2.95906 47.5 0.652344 45.056 0.652344 42V6C0.652344 2.93265 2.95843 0.5 5.70994 0.5H144.594C147.343 0.5 149.652 2.93282 149.652 6V42C149.652 45.0559 147.343 47.5 144.594 47.5Z" stroke="white" stroke-opacity="0.29"/>
<path d="M80.2567 16.4288C79.3568 16.4288 78.5982 16.1139 77.9983 15.4941C77.4033 14.8916 77.0711 14.0611 77.086 13.2132C77.086 12.3082 77.3934 11.5421 77.9983 10.9347C78.5957 10.3149 79.3543 10 80.2542 10C81.1442 10 81.9028 10.3149 82.5127 10.9347C83.1176 11.562 83.425 12.3281 83.425 13.2132C83.415 14.1206 83.1076 14.8867 82.5127 15.4916C81.9152 16.1164 81.1566 16.4288 80.2567 16.4288ZM53.4803 16.4288C52.6002 16.4288 51.8366 16.1189 51.2119 15.5065C50.5921 14.8966 50.2773 14.1255 50.2773 13.2156C50.2773 12.3057 50.5921 11.5347 51.2119 10.9248C51.8242 10.3124 52.5878 10.0025 53.4803 10.0025C53.9166 10.0025 54.3405 10.0893 54.7471 10.2653C55.1462 10.4364 55.471 10.6694 55.7114 10.9545L55.7709 11.0264L55.0991 11.6859L55.0297 11.6041C54.6504 11.1529 54.1422 10.9322 53.4703 10.9322C52.8704 10.9322 52.3473 11.1454 51.916 11.5669C51.4821 11.9909 51.2615 12.5462 51.2615 13.2181C51.2615 13.89 51.4821 14.4454 51.916 14.8693C52.3473 15.2908 52.8704 15.504 53.4703 15.504C54.1099 15.504 54.6479 15.2908 55.0669 14.8693C55.3148 14.6214 55.4685 14.2743 55.523 13.8355H53.3687V12.9082H56.4477L56.4601 12.9925C56.4824 13.1487 56.5047 13.3099 56.5047 13.4586C56.5047 14.314 56.2469 15.0057 55.7362 15.5164C55.1561 16.1214 54.3975 16.4288 53.4803 16.4288ZM89.0822 16.2974H88.1327L85.2248 11.6438L85.2496 12.4818V16.2949H84.3001V10.1339H85.3834L85.4132 10.181L88.1476 14.5644L88.1228 13.7289V10.1339H89.0822V16.2974ZM73.1219 16.2974H72.1601V11.0611H70.4916V10.1339H74.7879V11.0611H73.1195V16.2974H73.1219ZM69.7083 16.2974H68.7489V10.1339H69.7083V16.2974ZM64.3163 16.2974H63.3569V11.0611H61.6885V10.1339H65.9847V11.0611H64.3163V16.2974ZM61.0811 16.2875H57.4021V10.1339H61.0811V11.0611H58.364V12.752H60.8158V13.6694H58.364V15.3602H61.0811V16.2875ZM78.7023 14.8569C79.1312 15.2859 79.6518 15.5016 80.2567 15.5016C80.879 15.5016 81.3872 15.2908 81.8111 14.8569C82.2325 14.4355 82.4457 13.8826 82.4457 13.2156C82.4457 12.5487 82.2325 11.9934 81.8136 11.5744C81.3847 11.1454 80.8616 10.9297 80.2592 10.9297C79.6369 10.9297 79.1287 11.1405 78.7073 11.5744C78.2858 11.9958 78.0726 12.5487 78.0726 13.2156C78.0726 13.8826 78.2834 14.4379 78.7023 14.8569Z" fill="white"/>
<path fill-rule="evenodd" clip-rule="evenodd" d="M76.9977 24.9009C74.6549 24.9009 72.756 26.6785 72.756 29.1305C72.756 31.5602 74.6673 33.3602 76.9977 33.3602C79.3404 33.3602 81.2394 31.5702 81.2394 29.1305C81.2394 26.6785 79.3404 24.9009 76.9977 24.9009ZM76.9977 31.6842C75.716 31.6842 74.6128 30.6231 74.6128 29.1206C74.6128 27.5959 75.7185 26.557 76.9977 26.557C78.2793 26.557 79.3825 27.5959 79.3825 29.1206C79.385 30.633 78.2793 31.6842 76.9977 31.6842ZM67.7433 24.9009C65.4006 24.9009 63.5016 26.6785 63.5016 29.1305C63.5016 31.5602 65.413 33.3602 67.7433 33.3602C70.086 33.3602 71.985 31.5702 71.985 29.1305C71.985 26.6785 70.0835 24.9009 67.7433 24.9009ZM67.7433 31.6842C66.4616 31.6842 65.3584 30.6231 65.3584 29.1206C65.3584 27.5959 66.4641 26.557 67.7433 26.557C69.025 26.557 70.1281 27.5959 70.1281 29.1206C70.1281 30.633 69.025 31.6842 67.7433 31.6842ZM56.7312 26.1926V27.9826H61.0275C60.8961 28.9867 60.5639 29.728 60.0557 30.2363C59.426 30.866 58.4542 31.5503 56.7412 31.5503C54.1009 31.5503 52.0359 29.4181 52.0359 26.7777C52.0359 24.1372 54.1009 22.005 56.7412 22.005C58.1666 22.005 59.2054 22.5678 59.9763 23.2868L61.2456 22.0174C60.1747 20.991 58.7492 20.2051 56.7511 20.2051C53.1291 20.2051 50.0898 23.1554 50.0898 26.7678C50.0898 30.39 53.1267 33.3305 56.7511 33.3305C58.7071 33.3305 60.1747 32.6908 61.3349 31.4859C62.5174 30.3032 62.8917 28.6347 62.8917 27.2884C62.8917 26.8694 62.8595 26.4926 62.7926 26.1727H56.7288C56.7312 26.1703 56.7312 26.1926 56.7312 26.1926ZM101.773 27.5859C101.419 26.6364 100.348 24.8909 98.1516 24.8909C95.975 24.8909 94.1652 26.6041 94.1652 29.1206C94.1652 31.4958 95.9551 33.3503 98.3623 33.3503C100.296 33.3503 101.421 32.1677 101.885 31.4735L100.449 30.5115C99.9737 31.2181 99.3118 31.6817 98.3722 31.6817C97.4227 31.6817 96.7584 31.2503 96.3171 30.3999L101.972 28.057C101.972 28.0595 101.773 27.5859 101.773 27.5859ZM96.0072 28.9991C95.9626 27.3653 97.2765 26.5347 98.2161 26.5347C98.9573 26.5347 99.5746 26.8992 99.7853 27.4297L96.0072 28.9991ZM91.4135 33.0974H93.2703V20.6712H91.4135V33.0974ZM88.3642 25.8405H88.2973C87.8783 25.3422 87.0825 24.8909 86.0661 24.8909C83.9564 24.8909 82.0128 26.7479 82.0128 29.133C82.0128 31.5082 83.9465 33.3429 86.0661 33.3429C87.0701 33.3429 87.8783 32.8891 88.2973 32.3809H88.3642V32.9883C88.3642 34.6023 87.5015 35.4726 86.1107 35.4726C84.9728 35.4726 84.2663 34.6544 83.9787 33.9701L82.3649 34.6445C82.8284 35.7602 84.0655 37.1411 86.1083 37.1411C88.2849 37.1411 90.1293 35.8593 90.1293 32.733V25.1438H88.3741V25.8405C88.3766 25.8405 88.3642 25.8405 88.3642 25.8405ZM86.2322 31.6842C84.9505 31.6842 83.8796 30.6132 83.8796 29.133C83.8796 27.6405 84.9505 26.5595 86.2322 26.5595C87.5015 26.5595 88.4857 27.6529 88.4857 29.133C88.4981 30.6132 87.504 31.6842 86.2322 31.6842ZM110.467 20.6712H106.027V33.0974H107.884V28.3917H110.47C112.525 28.3917 114.545 26.9017 114.545 24.5364C114.545 22.1712 112.532 20.6712 110.467 20.6712ZM110.522 26.6562H107.882V22.3918H110.522C111.913 22.3918 112.699 23.5397 112.699 24.524C112.699 25.4984 111.903 26.6562 110.522 26.6562ZM121.988 24.8785C120.639 24.8785 119.248 25.4761 118.673 26.7777L120.319 27.462C120.674 26.7777 121.323 26.5446 122.01 26.5446C122.972 26.5446 123.944 27.1198 123.966 28.1463V28.2777C123.634 28.0892 122.905 27.8016 122.032 27.8016C120.255 27.8016 118.452 28.7735 118.452 30.5958C118.452 32.2644 119.91 33.3354 121.534 33.3354C122.781 33.3354 123.468 32.7726 123.896 32.1206H123.963V33.0825H125.753V28.3223C125.753 26.1058 124.107 24.8785 121.988 24.8785ZM121.755 31.6842C121.147 31.6842 120.297 31.3867 120.297 30.6231C120.297 29.6611 121.358 29.2967 122.263 29.2967C123.081 29.2967 123.468 29.4727 123.953 29.7157C123.82 30.8313 122.878 31.6743 121.755 31.6842ZM132.283 25.1438L130.151 30.5338H130.084L127.875 25.1438H125.877L129.192 32.6784L127.303 36.8659H129.236L134.336 25.1438H132.283ZM115.569 33.0974H117.426V20.6712H115.569V33.0974Z" fill="white"/>
<path fill-rule="evenodd" clip-rule="evenodd" d="M15.606 11.3912C15.3184 11.7011 15.1523 12.1746 15.1523 12.7944V34.7783C15.1523 35.3982 15.3184 35.8717 15.6159 36.1692L15.6927 36.2362L28.0088 23.919V23.6438L15.6828 11.3242L15.606 11.3912Z" fill="url(#paint0_linear_1_7005)"/>
<path fill-rule="evenodd" clip-rule="evenodd" d="M32.1039 28.0391L27.9961 23.9309V23.6433L32.1039 19.5352L32.1931 19.5897L37.0521 22.3516C38.4429 23.1351 38.4429 24.4293 37.0521 25.2227L32.1931 27.9846L32.1039 28.0391Z" fill="url(#paint1_linear_1_7005)"/>
<path fill-rule="evenodd" clip-rule="evenodd" d="M32.1955 27.9846L27.9984 23.7871L15.6055 36.1811C16.0592 36.667 16.8203 36.7216 17.6706 36.248L32.1955 27.9846Z" fill="url(#paint2_linear_1_7005)"/>
<path fill-rule="evenodd" clip-rule="evenodd" d="M32.1955 19.5877L17.6706 11.3366C16.8203 10.8507 16.0567 10.9176 15.6055 11.4036L27.9984 23.7852L32.1955 19.5877Z" fill="url(#paint3_linear_1_7005)"/>
<path opacity="0.25" fill-rule="evenodd" clip-rule="evenodd" d="M17.671 11.4808L37.0549 22.4939C37.6846 22.8484 38.0391 23.312 38.0936 23.7856C38.0936 23.2674 37.7515 22.7467 37.0549 22.3501L17.671 11.337C16.2803 10.5412 15.1523 11.2056 15.1523 12.7949V12.9387C15.1523 11.347 16.2803 10.6949 17.671 11.4808Z" fill="white"/>
</g>
<defs>
<linearGradient id="paint0_linear_1_7005" x1="26.904" y1="12.5573" x2="7.17569" y2="17.8134" gradientUnits="userSpaceOnUse">
<stop stop-color="#00A0FF"/>
<stop offset="0.00657" stop-color="#00A1FF"/>
<stop offset="0.2601" stop-color="#00BEFF"/>
<stop offset="0.5122" stop-color="#00D2FF"/>
<stop offset="0.7604" stop-color="#00DFFF"/>
<stop offset="1" stop-color="#00E3FF"/>
</linearGradient>
<linearGradient id="paint1_linear_1_7005" x1="38.8658" y1="23.7872" x2="14.8115" y2="23.7872" gradientUnits="userSpaceOnUse">
<stop stop-color="#FFE000"/>
<stop offset="0.4087" stop-color="#FFBD00"/>
<stop offset="0.7754" stop-color="#FFA500"/>
<stop offset="1" stop-color="#FF9C00"/>
</linearGradient>
<linearGradient id="paint2_linear_1_7005" x1="29.9133" y1="26.0711" x2="14.0735" y2="52.7284" gradientUnits="userSpaceOnUse">
<stop stop-color="#FF3A44"/>
<stop offset="1" stop-color="#C31162"/>
</linearGradient>
<linearGradient id="paint3_linear_1_7005" x1="12.4849" y1="4.07895" x2="19.5516" y2="15.9845" gradientUnits="userSpaceOnUse">
<stop stop-color="#32A071"/>
<stop offset="0.0685" stop-color="#2DA771"/>
<stop offset="0.4762" stop-color="#15CF74"/>
<stop offset="0.8009" stop-color="#06E775"/>
<stop offset="1" stop-color="#00F076"/>
</linearGradient>
<clipPath id="clip0_1_7005">
<rect width="150" height="48" fill="white" transform="translate(0.152344)"/>
</clipPath>
</defs>
</svg>
