<svg width="151" height="48" viewBox="0 0 151 48" fill="none" xmlns="http://www.w3.org/2000/svg">
<g clip-path="url(#clip0_88_2676)">
<path fill-rule="evenodd" clip-rule="evenodd" d="M144.593 48H5.70897C2.64594 48 0.151367 45.2948 0.151367 42V6C0.151367 2.69327 2.64594 0 5.70897 0H144.593C147.654 0 150.151 2.69327 150.151 6V42C150.151 45.2948 147.654 48 144.593 48Z" fill="black"/>
<path d="M144.593 47.5H5.70897C2.95809 47.5 0.651367 45.056 0.651367 42V6C0.651367 2.93265 2.95746 0.5 5.70897 0.5H144.593C147.342 0.5 149.651 2.93282 149.651 6V42C149.651 45.0559 147.342 47.5 144.593 47.5Z" stroke="white" stroke-opacity="0.29"/>
<path d="M80.2558 16.4288C79.3559 16.4288 78.5973 16.1139 77.9974 15.4941C77.4024 14.8916 77.0702 14.0611 77.0851 13.2132C77.0851 12.3082 77.3925 11.5421 77.9974 10.9347C78.5948 10.3149 79.3534 10 80.2533 10C81.1433 10 81.9019 10.3149 82.5118 10.9347C83.1167 11.562 83.4241 12.3281 83.4241 13.2132C83.4141 14.1206 83.1067 14.8867 82.5118 15.4916C81.9143 16.1164 81.1557 16.4288 80.2558 16.4288ZM53.4794 16.4288C52.5993 16.4288 51.8357 16.1189 51.211 15.5065C50.5912 14.8966 50.2764 14.1255 50.2764 13.2156C50.2764 12.3057 50.5912 11.5347 51.211 10.9248C51.8233 10.3124 52.5869 10.0025 53.4794 10.0025C53.9157 10.0025 54.3396 10.0893 54.7462 10.2653C55.1453 10.4364 55.4701 10.6694 55.7105 10.9545L55.77 11.0264L55.0982 11.6859L55.0288 11.6041C54.6495 11.1529 54.1413 10.9322 53.4694 10.9322C52.8695 10.9322 52.3464 11.1454 51.9151 11.5669C51.4812 11.9909 51.2606 12.5462 51.2606 13.2181C51.2606 13.89 51.4812 14.4454 51.9151 14.8693C52.3464 15.2908 52.8695 15.504 53.4694 15.504C54.109 15.504 54.647 15.2908 55.066 14.8693C55.3139 14.6214 55.4676 14.2743 55.5221 13.8355H53.3678V12.9082H56.4468L56.4592 12.9925C56.4815 13.1487 56.5038 13.3099 56.5038 13.4586C56.5038 14.314 56.246 15.0057 55.7353 15.5164C55.1552 16.1214 54.3966 16.4288 53.4794 16.4288ZM89.0813 16.2974H88.1318L85.2239 11.6438L85.2487 12.4818V16.2949H84.2992V10.1339H85.3825L85.4123 10.181L88.1467 14.5644L88.1219 13.7289V10.1339H89.0813V16.2974ZM73.121 16.2974H72.1592V11.0611H70.4907V10.1339H74.787V11.0611H73.1186V16.2974H73.121ZM69.7074 16.2974H68.748V10.1339H69.7074V16.2974ZM64.3154 16.2974H63.356V11.0611H61.6876V10.1339H65.9838V11.0611H64.3154V16.2974ZM61.0802 16.2875H57.4012V10.1339H61.0802V11.0611H58.3631V12.752H60.8149V13.6694H58.3631V15.3602H61.0802V16.2875ZM78.7014 14.8569C79.1303 15.2859 79.6509 15.5016 80.2558 15.5016C80.8781 15.5016 81.3863 15.2908 81.8102 14.8569C82.2316 14.4355 82.4448 13.8826 82.4448 13.2156C82.4448 12.5487 82.2316 11.9934 81.8127 11.5744C81.3838 11.1454 80.8607 10.9297 80.2583 10.9297C79.636 10.9297 79.1278 11.1405 78.7064 11.5744C78.2849 11.9958 78.0717 12.5487 78.0717 13.2156C78.0717 13.8826 78.2825 14.4379 78.7014 14.8569Z" fill="white"/>
<path fill-rule="evenodd" clip-rule="evenodd" d="M76.9968 24.9009C74.654 24.9009 72.7551 26.6785 72.7551 29.1305C72.7551 31.5602 74.6664 33.3602 76.9968 33.3602C79.3395 33.3602 81.2385 31.5702 81.2385 29.1305C81.2385 26.6785 79.3395 24.9009 76.9968 24.9009ZM76.9968 31.6842C75.7151 31.6842 74.6119 30.6231 74.6119 29.1206C74.6119 27.5959 75.7176 26.557 76.9968 26.557C78.2784 26.557 79.3816 27.5959 79.3816 29.1206C79.3841 30.633 78.2784 31.6842 76.9968 31.6842ZM67.7424 24.9009C65.3997 24.9009 63.5007 26.6785 63.5007 29.1305C63.5007 31.5602 65.4121 33.3602 67.7424 33.3602C70.0851 33.3602 71.9841 31.5702 71.9841 29.1305C71.9841 26.6785 70.0826 24.9009 67.7424 24.9009ZM67.7424 31.6842C66.4607 31.6842 65.3575 30.6231 65.3575 29.1206C65.3575 27.5959 66.4632 26.557 67.7424 26.557C69.0241 26.557 70.1272 27.5959 70.1272 29.1206C70.1272 30.633 69.0241 31.6842 67.7424 31.6842ZM56.7303 26.1926V27.9826H61.0266C60.8952 28.9867 60.563 29.728 60.0548 30.2363C59.4251 30.866 58.4533 31.5503 56.7403 31.5503C54.1 31.5503 52.035 29.4181 52.035 26.7777C52.035 24.1372 54.1 22.005 56.7403 22.005C58.1657 22.005 59.2045 22.5678 59.9754 23.2868L61.2447 22.0174C60.1738 20.991 58.7483 20.2051 56.7502 20.2051C53.1282 20.2051 50.0889 23.1554 50.0889 26.7678C50.0889 30.39 53.1258 33.3305 56.7502 33.3305C58.7062 33.3305 60.1738 32.6908 61.334 31.4859C62.5165 30.3032 62.8908 28.6347 62.8908 27.2884C62.8908 26.8694 62.8586 26.4926 62.7917 26.1727H56.7279C56.7303 26.1703 56.7303 26.1926 56.7303 26.1926ZM101.772 27.5859C101.418 26.6364 100.347 24.8909 98.1507 24.8909C95.9741 24.8909 94.1643 26.6041 94.1643 29.1206C94.1643 31.4958 95.9542 33.3503 98.3614 33.3503C100.295 33.3503 101.42 32.1677 101.884 31.4735L100.448 30.5115C99.9728 31.2181 99.3109 31.6817 98.3713 31.6817C97.4218 31.6817 96.7575 31.2503 96.3162 30.3999L101.971 28.057C101.971 28.0595 101.772 27.5859 101.772 27.5859ZM96.0063 28.9991C95.9617 27.3653 97.2756 26.5347 98.2152 26.5347C98.9564 26.5347 99.5737 26.8992 99.7844 27.4297L96.0063 28.9991ZM91.4126 33.0974H93.2694V20.6712H91.4126V33.0974ZM88.3633 25.8405H88.2964C87.8774 25.3422 87.0816 24.8909 86.0652 24.8909C83.9555 24.8909 82.0119 26.7479 82.0119 29.133C82.0119 31.5082 83.9456 33.3429 86.0652 33.3429C87.0692 33.3429 87.8774 32.8891 88.2964 32.3809H88.3633V32.9883C88.3633 34.6023 87.5006 35.4726 86.1098 35.4726C84.9719 35.4726 84.2654 34.6544 83.9778 33.9701L82.364 34.6445C82.8275 35.7602 84.0646 37.1411 86.1074 37.1411C88.284 37.1411 90.1284 35.8593 90.1284 32.733V25.1438H88.3732V25.8405C88.3757 25.8405 88.3633 25.8405 88.3633 25.8405ZM86.2313 31.6842C84.9496 31.6842 83.8787 30.6132 83.8787 29.133C83.8787 27.6405 84.9496 26.5595 86.2313 26.5595C87.5006 26.5595 88.4848 27.6529 88.4848 29.133C88.4972 30.6132 87.5031 31.6842 86.2313 31.6842ZM110.466 20.6712H106.026V33.0974H107.883V28.3917H110.469C112.524 28.3917 114.544 26.9017 114.544 24.5364C114.544 22.1712 112.531 20.6712 110.466 20.6712ZM110.521 26.6562H107.881V22.3918H110.521C111.912 22.3918 112.698 23.5397 112.698 24.524C112.698 25.4984 111.902 26.6562 110.521 26.6562ZM121.987 24.8785C120.638 24.8785 119.247 25.4761 118.672 26.7777L120.318 27.462C120.673 26.7777 121.322 26.5446 122.009 26.5446C122.971 26.5446 123.943 27.1198 123.965 28.1463V28.2777C123.633 28.0892 122.904 27.8016 122.031 27.8016C120.254 27.8016 118.451 28.7735 118.451 30.5958C118.451 32.2644 119.909 33.3354 121.533 33.3354C122.78 33.3354 123.467 32.7726 123.895 32.1206H123.962V33.0825H125.752V28.3223C125.752 26.1058 124.106 24.8785 121.987 24.8785ZM121.754 31.6842C121.146 31.6842 120.296 31.3867 120.296 30.6231C120.296 29.6611 121.357 29.2967 122.262 29.2967C123.08 29.2967 123.467 29.4727 123.952 29.7157C123.819 30.8313 122.877 31.6743 121.754 31.6842ZM132.282 25.1438L130.15 30.5338H130.083L127.874 25.1438H125.876L129.191 32.6784L127.302 36.8659H129.235L134.335 25.1438H132.282ZM115.568 33.0974H117.425V20.6712H115.568V33.0974Z" fill="white"/>
<path fill-rule="evenodd" clip-rule="evenodd" d="M15.6051 11.3912C15.3175 11.7011 15.1514 12.1746 15.1514 12.7944V34.7783C15.1514 35.3982 15.3175 35.8717 15.615 36.1692L15.6918 36.2362L28.0079 23.919V23.6438L15.6819 11.3242L15.6051 11.3912Z" fill="url(#paint0_linear_88_2676)"/>
<path fill-rule="evenodd" clip-rule="evenodd" d="M32.1029 28.0391L27.9951 23.9309V23.6433L32.1029 19.5352L32.1921 19.5897L37.0511 22.3516C38.4419 23.1351 38.4419 24.4293 37.0511 25.2227L32.1921 27.9846L32.1029 28.0391Z" fill="url(#paint1_linear_88_2676)"/>
<path fill-rule="evenodd" clip-rule="evenodd" d="M32.1945 27.9846L27.9974 23.7871L15.6045 36.1811C16.0582 36.667 16.8193 36.7216 17.6696 36.248L32.1945 27.9846Z" fill="url(#paint2_linear_88_2676)"/>
<path fill-rule="evenodd" clip-rule="evenodd" d="M32.1945 19.5877L17.6696 11.3366C16.8193 10.8507 16.0557 10.9176 15.6045 11.4036L27.9974 23.7852L32.1945 19.5877Z" fill="url(#paint3_linear_88_2676)"/>
<path opacity="0.25" fill-rule="evenodd" clip-rule="evenodd" d="M17.6701 11.4808L37.054 22.4939C37.6837 22.8484 38.0382 23.312 38.0927 23.7856C38.0927 23.2674 37.7506 22.7467 37.054 22.3501L17.6701 11.337C16.2794 10.5412 15.1514 11.2056 15.1514 12.7949V12.9387C15.1514 11.347 16.2794 10.6949 17.6701 11.4808Z" fill="white"/>
</g>
<defs>
<linearGradient id="paint0_linear_88_2676" x1="26.9031" y1="12.5573" x2="7.17472" y2="17.8134" gradientUnits="userSpaceOnUse">
<stop stop-color="#00A0FF"/>
<stop offset="0.00657" stop-color="#00A1FF"/>
<stop offset="0.2601" stop-color="#00BEFF"/>
<stop offset="0.5122" stop-color="#00D2FF"/>
<stop offset="0.7604" stop-color="#00DFFF"/>
<stop offset="1" stop-color="#00E3FF"/>
</linearGradient>
<linearGradient id="paint1_linear_88_2676" x1="38.8648" y1="23.7872" x2="14.8105" y2="23.7872" gradientUnits="userSpaceOnUse">
<stop stop-color="#FFE000"/>
<stop offset="0.4087" stop-color="#FFBD00"/>
<stop offset="0.7754" stop-color="#FFA500"/>
<stop offset="1" stop-color="#FF9C00"/>
</linearGradient>
<linearGradient id="paint2_linear_88_2676" x1="29.9123" y1="26.0711" x2="14.0725" y2="52.7284" gradientUnits="userSpaceOnUse">
<stop stop-color="#FF3A44"/>
<stop offset="1" stop-color="#C31162"/>
</linearGradient>
<linearGradient id="paint3_linear_88_2676" x1="12.4839" y1="4.07895" x2="19.5506" y2="15.9845" gradientUnits="userSpaceOnUse">
<stop stop-color="#32A071"/>
<stop offset="0.0685" stop-color="#2DA771"/>
<stop offset="0.4762" stop-color="#15CF74"/>
<stop offset="0.8009" stop-color="#06E775"/>
<stop offset="1" stop-color="#00F076"/>
</linearGradient>
<clipPath id="clip0_88_2676">
<rect width="150" height="48" fill="white" transform="translate(0.151367)"/>
</clipPath>
</defs>
</svg>
