<svg width="21" height="20" viewBox="0 0 21 20" fill="none" xmlns="http://www.w3.org/2000/svg">
<path d="M15.1228 9.68333C15.0831 9.58103 15.0237 9.48758 14.9478 9.40833L10.7811 5.24166C10.7034 5.16396 10.6112 5.10233 10.5097 5.06028C10.4081 5.01823 10.2993 4.99658 10.1895 4.99658C9.96753 4.99658 9.75471 5.08474 9.59779 5.24166C9.52009 5.31936 9.45845 5.4116 9.4164 5.51312C9.37435 5.61464 9.35271 5.72344 9.35271 5.83333C9.35271 6.05524 9.44087 6.26807 9.59779 6.42499L12.3478 9.16666H6.02279C5.80177 9.16666 5.58981 9.25446 5.43353 9.41074C5.27725 9.56702 5.18945 9.77898 5.18945 9.99999C5.18945 10.221 5.27725 10.433 5.43353 10.5892C5.58981 10.7455 5.80177 10.8333 6.02279 10.8333H12.3478L9.59779 13.575C9.51968 13.6525 9.45768 13.7446 9.41538 13.8462C9.37307 13.9477 9.35129 14.0566 9.35129 14.1667C9.35129 14.2767 9.37307 14.3856 9.41538 14.4871C9.45768 14.5887 9.51968 14.6809 9.59779 14.7583C9.67526 14.8364 9.76742 14.8984 9.86897 14.9407C9.97052 14.983 10.0794 15.0048 10.1895 15.0048C10.2995 15.0048 10.4084 14.983 10.5099 14.9407C10.6115 14.8984 10.7037 14.8364 10.7811 14.7583L14.9478 10.5917C15.0237 10.5124 15.0831 10.419 15.1228 10.3167C15.2061 10.1138 15.2061 9.88621 15.1228 9.68333Z" fill="#DBE1EB"/>
</svg>
