<svg width="21" height="20" viewBox="0 0 21 20" fill="none" xmlns="http://www.w3.org/2000/svg">
<path d="M15.1238 9.68333C15.0841 9.58103 15.0246 9.48758 14.9488 9.40833L10.7821 5.24166C10.7044 5.16396 10.6122 5.10233 10.5106 5.06028C10.4091 5.01823 10.3003 4.99658 10.1904 4.99658C9.96851 4.99658 9.75568 5.08474 9.59876 5.24166C9.52106 5.31936 9.45943 5.4116 9.41738 5.51312C9.37533 5.61464 9.35369 5.72344 9.35369 5.83333C9.35369 6.05524 9.44184 6.26807 9.59876 6.42499L12.3488 9.16666H6.02376C5.80275 9.16666 5.59079 9.25446 5.43451 9.41074C5.27823 9.56702 5.19043 9.77898 5.19043 9.99999C5.19043 10.221 5.27823 10.433 5.43451 10.5892C5.59079 10.7455 5.80275 10.8333 6.02376 10.8333H12.3488L9.59876 13.575C9.52066 13.6525 9.45866 13.7446 9.41635 13.8462C9.37405 13.9477 9.35226 14.0566 9.35226 14.1667C9.35226 14.2767 9.37405 14.3856 9.41635 14.4871C9.45866 14.5887 9.52066 14.6809 9.59876 14.7583C9.67623 14.8364 9.7684 14.8984 9.86995 14.9407C9.9715 14.983 10.0804 15.0048 10.1904 15.0048C10.3004 15.0048 10.4094 14.983 10.5109 14.9407C10.6125 14.8984 10.7046 14.8364 10.7821 14.7583L14.9488 10.5917C15.0246 10.5124 15.0841 10.419 15.1238 10.3167C15.2071 10.1138 15.2071 9.88621 15.1238 9.68333Z" fill="#DBE1EB"/>
</svg>
