<svg width="20" height="20" viewBox="0 0 20 20" fill="none" xmlns="http://www.w3.org/2000/svg">
<path d="M12.9322 11.462L12.749 11.8367L12.5175 12.3104L12.0568 12.0541C11.2051 11.5803 10.4225 10.9919 9.73091 10.3053L9.72833 10.3027C9.04174 9.6111 8.45332 8.82851 7.97956 7.97686L7.75528 7.57368L8.13916 7.31777L8.48916 7.08443L8.5168 7.06601L8.54664 7.0514C8.80526 6.92477 9.00792 6.70696 9.11561 6.43988C9.22313 6.17326 9.2284 5.87634 9.13046 5.60608C8.99077 5.22968 8.87613 4.84446 8.78727 4.45294L12.9322 11.462ZM12.9322 11.462C12.9323 11.4619 12.9323 11.4619 12.9323 11.4618C12.9323 11.4618 12.9323 11.4618 12.9324 11.4617C13.059 11.2032 13.2768 11.0007 13.5437 10.893C13.8099 10.7857 14.1063 10.7803 14.3762 10.8777C14.7527 11.02 15.139 11.135 15.5321 11.2217C15.5539 11.2267 15.5798 11.2331 15.6091 11.2403C15.7436 11.2737 15.9492 11.3246 16.1474 11.3327C16.5891 11.4202 16.9887 11.6544 17.2811 11.9977C17.5805 12.3492 17.7491 12.7935 17.7582 13.2551L17.7582 15.7505L17.7582 15.7528C17.7595 16.0357 17.7007 16.3158 17.5858 16.5743C17.471 16.8327 17.3026 17.0639 17.0919 17.2524C16.7249 17.5793 16.2504 17.7595 15.7589 17.7588H15.7582H15.4725C12.1016 17.3358 8.96621 15.8051 6.55913 13.4068C4.14483 11.0013 2.60077 7.85996 2.17085 4.47905L2.17087 4.47905L2.17015 4.47377C2.13086 4.18914 2.15337 3.89939 2.23614 3.62425C2.3189 3.3491 2.45998 3.09502 2.64977 2.87929C2.83955 2.66357 3.07359 2.49127 3.33595 2.37412C3.59831 2.25698 3.88283 2.19774 4.17015 2.20044L4.17015 2.20046H4.17484H6.67484V2.20051L6.68211 2.20041C7.15857 2.19348 7.62185 2.3569 7.98852 2.66123C8.35275 2.96355 8.59788 3.38517 8.68047 3.85105C8.70711 4.05285 8.74256 4.25619 8.78724 4.45278L12.9322 11.462ZM17.1165 15.8344L17.1165 15.8306L17.0999 13.2369C17.1049 12.9296 17.0036 12.63 16.813 12.3887C16.6207 12.1454 16.3496 11.9766 16.0464 11.9116L16.0302 11.9081L16.0139 11.9057C15.7987 11.8742 15.5864 11.8349 15.3768 11.7878C14.9503 11.691 14.53 11.5686 14.1182 11.4213L13.6808 11.2649L13.4927 11.6897L12.9783 12.8512C12.9597 12.89 12.9339 12.9248 12.9022 12.9537C12.8696 12.9835 12.8313 13.0065 12.7898 13.0213L12.7789 13.0252L12.7682 13.0296C12.6899 13.0618 12.6024 13.0629 12.5234 13.033C10.067 11.8825 8.09251 9.90585 6.94482 7.44782C6.92645 7.40812 6.91608 7.36519 6.9143 7.32148C6.9125 7.27762 6.91939 7.23384 6.93457 7.19264C6.94975 7.15145 6.97291 7.11366 7.00273 7.08144C7.03255 7.04923 7.06845 7.02322 7.10835 7.00491L7.10835 7.00491L7.11039 7.00396L8.27706 6.4623L8.69844 6.26666L8.53423 5.83207C8.38386 5.43408 8.26266 5.02568 8.17158 4.6101L8.17159 4.61009L8.17098 4.60737C8.12379 4.39764 8.08442 4.1851 8.0529 3.96973L8.05051 3.95339L8.04705 3.93725C7.982 3.63401 7.81327 3.36293 7.56991 3.17068L7.25996 3.56302L7.56991 3.17068C7.32817 2.97971 7.02782 2.87838 6.71993 2.88379L4.22484 2.88379L4.22421 2.88379C4.03489 2.88403 3.8478 2.92458 3.67538 3.00275C3.50295 3.08092 3.34915 3.1949 3.22421 3.33713L3.22413 3.33706L3.21744 3.34499C3.09479 3.49058 3.00293 3.65954 2.94741 3.84164C2.89189 4.02374 2.87387 4.21521 2.89443 4.40447L2.89438 4.40447L2.89527 4.41169C3.29421 7.64469 4.75811 10.6529 7.05605 12.9617C9.35297 15.2696 12.3525 16.7475 15.582 17.1625C15.7758 17.1904 15.9734 17.1753 16.1608 17.1182C16.3484 17.0609 16.5212 16.963 16.6666 16.8314C16.8072 16.707 16.92 16.5543 16.9975 16.3833C17.0757 16.2108 17.1163 16.0237 17.1165 15.8344ZM16.0689 3.93142L16.4224 3.57787L16.0689 3.93142C16.1314 3.99394 16.1665 4.07872 16.1665 4.16713V7.50046C16.1665 7.58887 16.1314 7.67365 16.0689 7.73616C16.0064 7.79867 15.9216 7.83379 15.8332 7.83379C15.7448 7.83379 15.66 7.79867 15.5975 7.73616C15.535 7.67365 15.4998 7.58887 15.4998 7.50046V4.16713C15.4998 4.07872 15.535 3.99394 15.5975 3.93142C15.66 3.86891 15.7448 3.83379 15.8332 3.83379C15.9216 3.83379 16.0064 3.86891 16.0689 3.93142ZM12.7355 7.73616C12.673 7.79867 12.5882 7.83379 12.4998 7.83379C12.4114 7.83379 12.3267 7.79867 12.2641 7.73616C12.2016 7.67365 12.1665 7.58887 12.1665 7.50046V4.16713C12.1665 4.07872 12.2016 3.99394 12.2641 3.93142C12.3267 3.86891 12.4114 3.83379 12.4998 3.83379C12.5882 3.83379 12.673 3.86891 12.7355 3.93142C12.7981 3.99394 12.8332 4.07872 12.8332 4.16713V7.50046C12.8332 7.58887 12.7981 7.67365 12.7355 7.73616Z" stroke="#E5E7EB"/>
</svg>
