<svg width="20" height="20" viewBox="0 0 20 20" fill="none" xmlns="http://www.w3.org/2000/svg">
<path d="M16.1484 11.3322C15.9501 11.3241 15.7446 11.2732 15.6101 11.2399C15.5808 11.2326 15.5549 11.2262 15.5332 11.2212C15.5327 11.2211 15.5322 11.221 15.5317 11.2209L16.1484 11.3322ZM16.1484 11.3322C16.5901 11.4197 16.9897 11.6539 17.2821 11.9972C17.5815 12.3488 17.75 12.793 17.7591 13.2546L17.7591 15.75L17.7592 15.7523C17.7605 16.0352 17.7017 16.3153 17.5868 16.5738C17.472 16.8322 17.3037 17.0632 17.093 17.2518C16.726 17.5787 16.2514 17.759 15.7599 17.7583H15.7591H15.4735C12.1025 17.3353 8.96719 15.8047 6.5601 13.4063C4.14581 11.0008 2.60175 7.85947 2.17182 4.47856L2.17185 4.47856L2.17112 4.47328C2.13184 4.18866 2.15435 3.89891 2.23711 3.62376C2.31988 3.34861 2.46096 3.09453 2.65074 2.8788C2.84053 2.66308 3.07457 2.49078 3.33693 2.37364C3.59929 2.25649 3.88381 2.19725 4.17112 2.19995L4.17112 2.19997H4.17582H6.67582V2.20002L6.68308 2.19992C7.15955 2.19299 7.62283 2.35641 7.9895 2.66074C8.35373 2.96306 8.59885 3.38468 8.68145 3.85056C8.70808 4.05236 8.74354 4.2557 8.78821 4.45229L16.1484 11.3322ZM12.5185 12.3099L12.0578 12.0536C11.2061 11.5798 10.4235 10.9914 9.73189 10.3048L9.72931 10.3022C9.04272 9.61061 8.4543 8.82802 7.98054 7.97637L7.75626 7.57319L8.14013 7.31728L8.49013 7.08395L8.51778 7.06552L8.54761 7.05091C8.80624 6.92428 9.0089 6.70647 9.11659 6.4394C9.22409 6.1728 9.22938 5.87591 9.13147 5.60568C9.13129 5.6052 9.13112 5.60472 9.13094 5.60424L12.5185 12.3099ZM12.5185 12.3099L12.75 11.8362M12.5185 12.3099L12.75 11.8362M12.75 11.8362L12.9332 11.4615L12.75 11.8362ZM17.1175 15.8339L17.1175 15.8301L17.1008 13.2364C17.1058 12.9292 17.0045 12.6295 16.8139 12.3882C16.6217 12.1449 16.3506 11.9761 16.0474 11.9111L16.0312 11.9076L16.0149 11.9052C15.7995 11.8737 15.587 11.8344 15.3773 11.7872C14.951 11.6904 14.5308 11.5681 14.1192 11.4208L13.6818 11.2644L13.4936 11.6892L12.9792 12.8507C12.9607 12.8895 12.9349 12.9243 12.9031 12.9532C12.8705 12.983 12.8323 13.006 12.7908 13.0209L12.7799 13.0247L12.7691 13.0291C12.6908 13.0613 12.6033 13.0624 12.5244 13.0325C10.068 11.8821 8.09358 9.90545 6.94587 7.4475C6.92746 7.40775 6.91706 7.36477 6.91527 7.321C6.91348 7.27713 6.92037 7.23335 6.93555 7.19215C6.95072 7.15096 6.97389 7.11317 7.00371 7.08095C7.03353 7.04874 7.06942 7.02273 7.10932 7.00442L7.10932 7.00443L7.11137 7.00348L8.27804 6.46181L8.69942 6.26617L8.53521 5.83158C8.38484 5.43359 8.26363 5.02519 8.17256 4.60961L8.17257 4.60961L8.17195 4.60688C8.12476 4.39715 8.0854 4.18461 8.05388 3.96924L8.05149 3.9529L8.04803 3.93676C7.98297 3.63352 7.81425 3.36244 7.57089 3.17019C7.32915 2.97922 7.0288 2.87789 6.7209 2.8833L4.22582 2.8833L4.22518 2.88331C4.03587 2.88355 3.84878 2.9241 3.67635 3.00226C3.50393 3.08043 3.35013 3.19441 3.22518 3.33664L3.2251 3.33657L3.21842 3.3445C3.09577 3.4901 3.0039 3.65905 2.94839 3.84115C2.89287 4.02325 2.87485 4.21472 2.89541 4.40398L2.89536 4.40399L2.89625 4.41121C3.29519 7.6442 4.75908 10.6524 7.05702 12.9613C9.35393 15.2691 12.3535 16.747 15.5829 17.162C15.7767 17.1899 15.9744 17.1748 16.1618 17.1177C16.3494 17.0605 16.5221 16.9625 16.6676 16.8309C16.8082 16.7065 16.921 16.5538 16.9985 16.3828C17.0767 16.2103 17.1172 16.0233 17.1175 15.8339ZM16.0699 7.73567C16.0073 7.79819 15.9226 7.8333 15.8341 7.8333C15.7457 7.8333 15.661 7.79819 15.5984 7.73567C15.5359 7.67316 15.5008 7.58838 15.5008 7.49997V4.16664C15.5008 4.07823 15.5359 3.99345 15.5984 3.93094C15.661 3.86842 15.7457 3.8333 15.8341 3.8333C15.9226 3.8333 16.0073 3.86842 16.0699 3.93094C16.1324 3.99345 16.1675 4.07823 16.1675 4.16664V7.49997C16.1675 7.58838 16.1324 7.67316 16.0699 7.73567ZM12.7365 7.73567C12.674 7.79819 12.5892 7.8333 12.5008 7.8333C12.4124 7.8333 12.3276 7.79819 12.2651 7.73567C12.2026 7.67316 12.1675 7.58838 12.1675 7.49997V4.16664C12.1675 4.07823 12.2026 3.99345 12.2651 3.93094C12.3276 3.86842 12.4124 3.8333 12.5008 3.8333C12.5892 3.8333 12.674 3.86842 12.7365 3.93094C12.799 3.99345 12.8341 4.07823 12.8341 4.16664V7.49997C12.8341 7.58838 12.799 7.67316 12.7365 7.73567Z" stroke="#E5E7EB"/>
</svg>
